<svg width="16" height="16" viewBox="0 0 16 16" fill="none" xmlns="http://www.w3.org/2000/svg">
<g id="Icons / Plus / Circle">
<path id="Color" fill-rule="evenodd" clip-rule="evenodd" d="M10.0002 7.33337H8.66683V6.00004C8.66683 5.63337 8.36683 5.33337 8.00016 5.33337C7.6335 5.33337 7.3335 5.63337 7.3335 6.00004V7.33337H6.00016C5.6335 7.33337 5.3335 7.63337 5.3335 8.00004C5.3335 8.36671 5.6335 8.66671 6.00016 8.66671H7.3335V10C7.3335 10.3667 7.6335 10.6667 8.00016 10.6667C8.36683 10.6667 8.66683 10.3667 8.66683 10V8.66671H10.0002C10.3668 8.66671 10.6668 8.36671 10.6668 8.00004C10.6668 7.63337 10.3668 7.33337 10.0002 7.33337ZM8.00016 13.3334C5.0595 13.3334 2.66683 10.9407 2.66683 8.00004C2.66683 5.05937 5.0595 2.66671 8.00016 2.66671C10.9408 2.66671 13.3335 5.05937 13.3335 8.00004C13.3335 10.9407 10.9408 13.3334 8.00016 13.3334ZM8.00016 1.33337C4.32416 1.33337 1.3335 4.32404 1.3335 8.00004C1.3335 11.676 4.32416 14.6667 8.00016 14.6667C11.6762 14.6667 14.6668 11.676 14.6668 8.00004C14.6668 4.32404 11.6762 1.33337 8.00016 1.33337Z" fill="white"/>
</g>
</svg>
