<svg width="26" height="26" viewBox="0 0 26 26" fill="none" xmlns="http://www.w3.org/2000/svg">
<g id="Icon 8" opacity="0.75">
<path id="Color" fill-rule="evenodd" clip-rule="evenodd" d="M4.77 12.5906C5.979 13.0055 6.94208 14.0173 7.34508 15.3L7.38841 15.43C7.84991 16.7907 7.6625 18.2553 6.889 19.3538C6.74816 19.5532 6.77958 19.7915 6.928 19.9042L9.17266 21.6093C9.25175 21.6689 9.32866 21.6689 9.37633 21.6635C9.4305 21.6548 9.50958 21.6256 9.5735 21.5346L9.82375 21.1792C10.5702 20.1208 11.7727 19.4676 13.0423 19.4307C14.468 19.4015 15.7485 20.0547 16.5458 21.2063L16.6737 21.3916C16.7376 21.4826 16.8156 21.5129 16.8708 21.5216C16.9185 21.5313 16.9965 21.5281 17.0745 21.4674L19.3072 19.7828C19.4632 19.6658 19.4979 19.4156 19.382 19.2477L19.1003 18.8414C18.3745 17.7927 18.1589 16.4321 18.524 15.2025C18.9205 13.8635 19.9291 12.804 21.2237 12.3707L21.4414 12.297C21.6158 12.2396 21.7101 12.0229 21.6483 11.8236L20.7957 9.0925C20.7557 8.96466 20.6733 8.90725 20.6278 8.88341C20.5628 8.84983 20.4924 8.84441 20.4252 8.86717L20.0569 8.98958C18.797 9.40883 17.4071 9.18133 16.34 8.37858L16.223 8.29083C15.209 7.52816 14.6056 6.29858 14.6099 5.00291L14.6121 4.69958C14.6121 4.5555 14.5438 4.46558 14.5027 4.42441C14.4637 4.38433 14.3976 4.33666 14.3044 4.33666L11.5452 4.33341C11.3762 4.33341 11.2386 4.49483 11.2375 4.69416L11.2364 4.95633C11.231 6.27258 10.6146 7.52491 9.58758 8.30817L9.44783 8.41433C8.31791 9.27342 6.84458 9.51608 5.50991 9.06108C5.459 9.04375 5.41133 9.047 5.36583 9.07083C5.33116 9.08817 5.26833 9.13258 5.238 9.23116L4.35291 12.0435C4.289 12.2482 4.39408 12.4617 4.59233 12.5299L4.77 12.5906ZM9.33191 23.8334C8.80541 23.8334 8.29408 23.6622 7.86291 23.334L5.61825 21.6299C4.54575 20.8174 4.3085 19.2542 5.0885 18.1459C5.49366 17.5717 5.57708 16.834 5.33875 16.1342L5.27916 15.9522C5.08091 15.3217 4.62808 14.832 4.068 14.6402H4.06691L3.89033 14.5785C2.57083 14.1267 1.86666 12.7282 2.28591 11.3935L3.16991 8.58225C3.37033 7.94633 3.80258 7.43283 4.38758 7.13708C4.95958 6.84891 5.60633 6.8045 6.21083 7.01141C6.85975 7.23241 7.58016 7.11216 8.13591 6.68966L8.27566 6.5835C8.76966 6.2065 9.06758 5.59441 9.06975 4.94766L9.07083 4.68658C9.07625 3.29558 10.1867 2.16675 11.5441 2.16675H11.5484L14.3077 2.17C14.9598 2.17108 15.5752 2.42891 16.0388 2.89583C16.5187 3.37791 16.7809 4.0225 16.7787 4.71041L16.7766 5.01266C16.7744 5.62583 17.055 6.20541 17.5284 6.56075L17.6443 6.6485C18.1416 7.02225 18.7894 7.1295 19.3712 6.9345L19.7384 6.81208C20.3635 6.60408 21.0287 6.655 21.6147 6.95508C22.216 7.26275 22.6602 7.7925 22.8638 8.44791L23.7164 11.179C24.1281 12.4985 23.4152 13.922 22.1293 14.3521L21.9116 14.4247C21.2876 14.6348 20.7968 15.1548 20.6007 15.8178C20.4209 16.4256 20.5249 17.094 20.8813 17.6075L21.163 18.0137C21.9365 19.1317 21.6895 20.7004 20.6127 21.5118L18.3799 23.1975C17.8437 23.6027 17.1861 23.7662 16.5263 23.6612C15.8612 23.5539 15.2805 23.1856 14.8916 22.6244L14.7637 22.4381C14.3846 21.8921 13.7779 21.5606 13.142 21.5963C12.505 21.6137 11.9547 21.9159 11.595 22.4272L11.3447 22.7826C10.9526 23.3383 10.3708 23.7012 9.70891 23.8052C9.58216 23.8247 9.4565 23.8334 9.33191 23.8334ZM13.0003 11.375C12.1044 11.375 11.3753 12.1041 11.3753 13C11.3753 13.8959 12.1044 14.625 13.0003 14.625C13.8962 14.625 14.6253 13.8959 14.6253 13C14.6253 12.1041 13.8962 11.375 13.0003 11.375ZM13.0003 16.7916C10.9095 16.7916 9.20863 15.0908 9.20863 13C9.20863 10.9091 10.9095 9.20831 13.0003 9.20831C15.0911 9.20831 16.792 10.9091 16.792 13C16.792 15.0908 15.0911 16.7916 13.0003 16.7916Z" fill="#231F20"/>
</g>
</svg>
